<?xml version="1.0" encoding="utf-8"?>
<!-- Generator: Adobe Illustrator 26.4.1, SVG Export Plug-In . SVG Version: 6.00 Build 0)  -->
<svg version="1.1" id="Calque_1" xmlns="http://www.w3.org/2000/svg" xmlns:xlink="http://www.w3.org/1999/xlink" x="0px" y="0px"
	 viewBox="0 0 403.53 743.25" style="enable-background:new 0 0 403.53 743.25;" xml:space="preserve">
<style type="text/css">
	.st0{fill:#293273;}
	.st1{fill:#FFFFFF;}
	.st2{clip-path:url(#SVGID_00000104696439038183245500000005318575798244151476_);}
	.st3{opacity:0.08;fill:#FFFFFF;enable-background:new    ;}
	.st4{fill:none;}
</style>
<rect y="0" class="st0" width="403.53" height="743.25"/>
<g>
	<path class="st1" d="M159.99,701.67c-5.37,0.02-9.63,4.27-9.64,9.66c-0.01,5.35,4.27,9.62,9.65,9.64c5.22,0.01,9.56-4.28,9.64-9.41
		c0.08-5.56-4.38-9.91-9.66-9.89H159.99z M162.64,709.5c-0.05,0.56-0.08,1.06-0.16,1.55c-0.02,0.1-0.25,0.23-0.38,0.24
		c-0.46,0.03-0.92,0.01-1.42,0.01v5.88h-2.37v-5.88c-0.32,0-0.58,0-0.84,0c-0.28,0.01-0.41-0.08-0.4-0.39c0.02-0.47,0-0.94,0-1.46
		h1.23c0-0.51-0.01-0.99,0-1.46c0.04-1.7,0.83-2.51,2.53-2.55c0.59-0.01,1.18,0.09,1.77,0.17c0.1,0.01,0.25,0.21,0.24,0.3
		c-0.06,0.51-0.15,1.02-0.24,1.55c-0.44-0.04-0.81-0.09-1.18-0.09c-0.54,0-0.75,0.22-0.76,0.77c0,0.43,0,0.86,0,1.34h1.98
		L162.64,709.5z"/>
	<path class="st1" d="M188.03,701.68c-5.32,0-9.59,4.3-9.59,9.66c-0.08,5.22,4.31,9.71,9.79,9.64c5.18-0.06,9.48-4.36,9.49-9.6
		C197.72,705.96,193.45,701.68,188.03,701.68z M185.58,715h-2.17v-6.58h2.17V715z M184.48,707.51c-0.68,0-1.22-0.54-1.21-1.17
		c0.01-0.62,0.56-1.1,1.22-1.1c0.67,0,1.19,0.49,1.2,1.11C185.69,707,185.15,707.52,184.48,707.51L184.48,707.51z M193.47,714.74
		c0,0.09-0.16,0.25-0.25,0.26c-0.59,0.02-1.18,0.01-1.83,0.01v-0.7c0-1.04,0-2.08,0-3.12c0-0.75-0.49-1.29-1.13-1.29
		c-0.71,0-1.25,0.57-1.25,1.33c0,1.08,0,2.17,0,3.26v0.5h-2.14v-6.58h2.11v0.95c0.09-0.04,0.14-0.04,0.16-0.07
		c0.63-0.99,1.57-1.17,2.61-0.94c0.92,0.2,1.62,1.03,1.68,2.12c0.08,1.42,0.05,2.85,0.05,4.28L193.47,714.74z"/>
	<path class="st1" d="M216.03,701.67c-5.2,0-9.59,4.17-9.64,9.64c0.02,5.39,4.32,9.67,9.71,9.66c5.36-0.01,9.62-4.34,9.61-9.75
		c-0.01-5.27-4.38-9.56-9.67-9.55H216.03z M220.87,708.6c-0.49,0.21-0.51,0.58-0.53,1.07c-0.08,1.79-0.77,3.32-2.19,4.45
		c-1.14,0.91-2.4,1.61-3.9,1.69c-1.19,0.06-2.31-0.21-3.42-0.99c1.14-0.06,2.09-0.35,2.93-1.04c-0.76-0.3-1.53-0.59-1.89-1.44
		c0.28-0.05,0.53-0.09,0.84-0.14c-0.83-0.51-1.67-0.96-1.7-2.08c0.32,0.06,0.6,0.1,0.88,0.15l0.09-0.07
		c-0.95-0.78-1.14-1.72-0.67-2.9c1.26,1.41,2.74,2.22,4.61,2.26c0.05-0.31,0.07-0.62,0.14-0.91c0.42-1.76,2.1-2.36,3.53-1.27
		c0.15,0.11,0.42,0.11,0.61,0.08c0.27-0.05,0.53-0.18,0.88-0.19c-0.26,0.31-0.52,0.62-0.81,0.96c0.14,0,0.29,0,0.44,0
		c0.15,0,0.31-0.03,0.46-0.05c0.04,0.05,0.08,0.1,0.13,0.16c-0.15,0.09-0.29,0.21-0.45,0.27L220.87,708.6z"/>
	<path class="st1" d="M243.54,701.68c-5.3-0.02-9.61,4.24-9.68,9.55c-0.06,5.34,4.24,9.7,9.62,9.74c5.32,0.04,9.66-4.25,9.7-9.57
		C253.22,706.04,248.92,701.7,243.54,701.68L243.54,701.68z M249.07,714.02c-0.1,1.55-1.29,2.58-2.85,2.66c-0.86,0.04-1.72,0-2.58,0
		c-0.77,0-2.05,0.06-3.06-0.1c-1.33-0.21-2.3-1.19-2.36-2.53c-0.09-1.91-0.1-3.83,0-5.74c0.08-1.49,1.32-2.54,2.87-2.59
		c1.71-0.05,3.42-0.06,5.12,0c1.67,0.06,2.79,1.14,2.9,2.96C249.22,710.45,249.18,712.24,249.07,714.02L249.07,714.02z"/>
	<path class="st1" d="M246.22,706.7c-1.72-0.06-3.45-0.05-5.17,0c-1.11,0.03-1.83,0.72-1.88,1.82c-0.08,1.67-0.1,3.36-0.05,5.03
		c0.05,1.56,0.92,2.07,1.84,2.11c1.78,0.07,3.56,0.06,5.34,0c0.99-0.03,1.66-0.68,1.78-1.68c0.11-0.91,0.04-1.84,0.08-2.76
		c0-0.77,0.02-1.55,0-2.32c-0.05-1.35-0.73-2.18-1.95-2.22L246.22,706.7z M243.64,714.01c-1.57,0-2.84-1.25-2.85-2.82
		c-0.01-1.53,1.29-2.83,2.85-2.83c1.56,0,2.86,1.29,2.85,2.82c-0.01,1.57-1.28,2.82-2.85,2.82V714.01z M246.61,708.89
		c-0.31,0.02-0.65-0.32-0.66-0.65c0-0.34,0.3-0.66,0.64-0.67c0.34,0,0.65,0.3,0.67,0.64C247.27,708.53,246.95,708.87,246.61,708.89
		L246.61,708.89z"/>
	<path class="st1" d="M243.64,709.34c-1.02,0-1.85,0.83-1.85,1.85s0.83,1.85,1.85,1.85s1.85-0.83,1.85-1.85
		S244.66,709.34,243.64,709.34z"/>
</g>
<g>
	<defs>
		<rect id="SVGID_1_" y="0" width="403.53" height="743.25"/>
	</defs>
	<clipPath id="SVGID_00000073718706461249792320000000441927149174427813_">
		<use xlink:href="#SVGID_1_"  style="overflow:visible;"/>
	</clipPath>
	<g style="clip-path:url(#SVGID_00000073718706461249792320000000441927149174427813_);">
		<g>
			<path class="st3" d="M28.93,174.14c56.86-22.76,96.76-80.57,95.66-140.83C123.9-4.58,106.65-23.46,71.5-80.93
				c-2.76-4.51-5.61-9.23-8.59-14.24c-2.48-4.16-4.92-8.3-7.33-12.4c5.94,3.14,11.99,6.36,18.1,9.63
				c11.08,5.93,20.89,11.42,29.72,16.46c47.27,26.97,66.52,41.1,100.92,40.48c76.71-1.4,147.06-69.08,145.56-150.98
				c-0.32-17.57-3.93-34.37-10.15-49.9c-22.76-56.86-80.57-96.76-140.83-95.66c-37.89,0.69-56.77,17.94-114.24,53.09
				c-4.51,2.76-9.23,5.61-14.24,8.59c-4.17,2.48-8.31,4.93-12.41,7.34c3.14-5.95,6.36-12,9.64-18.11
				c5.93-11.08,11.42-20.89,16.46-29.72c26.98-47.27,41.1-66.52,40.48-100.92c-1.4-76.71-69.08-147.06-150.98-145.56
				c-17.57,0.32-34.37,3.93-49.9,10.15c-56.86,22.76-96.76,80.57-95.66,140.83c0.69,37.89,17.94,56.77,53.09,114.24
				c2.76,4.51,5.61,9.23,8.59,14.24c2.48,4.17,4.93,8.31,7.34,12.42c-5.95-3.14-12-6.36-18.11-9.64
				c-11.08-5.93-20.89-11.42-29.72-16.46c-47.27-26.98-66.52-41.1-100.92-40.48c-76.71,1.4-147.06,69.08-145.56,150.98
				c0.32,17.57,3.93,34.37,10.15,49.9c22.76,56.86,80.57,96.76,140.83,95.66c37.89-0.69,56.77-17.94,114.24-53.09
				c4.51-2.76,9.23-5.61,14.24-8.59c4.17-2.48,8.3-4.92,12.4-7.33c-3.14,5.94-6.36,11.99-9.63,18.1
				c-5.93,11.08-11.42,20.89-16.46,29.72c-26.98,47.26-41.11,66.51-40.48,100.91c1.4,76.71,69.08,147.06,150.98,145.56
				C-3.4,183.97,13.4,180.36,28.93,174.14z M196.42-268.84c1.21-0.08,2.43-0.14,3.66-0.16c0.03,0,0.05,0,0.08,0
				c21.43-0.39,41.04,7.71,55.61,21.2l0,0c1.64,1.52,3.21,3.1,4.71,4.75c1.65,1.8,3.21,3.67,4.69,5.62
				c3.21,4.24,5.99,8.81,8.32,13.66c1.42,2.95,2.66,6,3.71,9.14c0.87,2.59,1.6,5.24,2.2,7.94c0.37,1.68,0.71,3.37,0.98,5.08
				c0.03,0.19,0.04,0.38,0.07,0.56c0.5,3.38,0.83,6.81,0.89,10.32c0.8,44.03-34.24,80.4-78.28,81.21
				c-8.58,0.16-16.85-1.1-24.65-3.47L37.04-139.47c-8.28-14.42-15.67-27.52-21.8-38.5l145.01-79.5c0.47-0.29,0.95-0.57,1.43-0.85
				c0.46-0.27,0.93-0.53,1.4-0.79c0.61-0.34,1.23-0.67,1.85-0.99c0.47-0.25,0.95-0.49,1.43-0.73c0.05-0.02,0.09-0.05,0.14-0.07l0,0
				l0,0c0.59-0.29,1.19-0.57,1.79-0.85c0.47-0.22,0.95-0.44,1.43-0.65c0.68-0.3,1.37-0.58,2.06-0.85c0.46-0.19,0.92-0.38,1.39-0.56
				c0.77-0.29,1.54-0.56,2.32-0.83c0.4-0.14,0.8-0.29,1.2-0.42c1.18-0.39,2.36-0.75,3.56-1.08c0.17-0.05,0.33-0.08,0.5-0.13
				c1.05-0.28,2.1-0.55,3.16-0.79c0.44-0.1,0.89-0.18,1.33-0.27c0.65-0.14,1.3-0.28,1.96-0.4c0.15-0.03,0.31-0.05,0.47-0.07
				c0.4-0.07,0.8-0.13,1.2-0.19c0.82-0.13,1.65-0.25,2.48-0.36c0.44-0.06,0.88-0.11,1.33-0.16c0.84-0.1,1.69-0.17,2.54-0.24
				c0.4-0.03,0.8-0.07,1.2-0.1L196.42-268.84z M-91.87-373.23c-0.29-0.47-0.57-0.95-0.85-1.43c-0.27-0.46-0.53-0.93-0.79-1.4
				c-0.34-0.61-0.67-1.23-0.99-1.85c-0.25-0.47-0.49-0.95-0.73-1.43c-0.02-0.05-0.05-0.09-0.07-0.14l0,0l0,0
				c-0.29-0.59-0.57-1.19-0.85-1.79c-0.22-0.47-0.44-0.95-0.65-1.43c-0.3-0.68-0.58-1.37-0.85-2.06c-0.19-0.46-0.38-0.92-0.56-1.39
				c-0.29-0.77-0.56-1.54-0.83-2.32c-0.14-0.4-0.29-0.8-0.42-1.2c-0.39-1.18-0.75-2.36-1.08-3.56c-0.05-0.17-0.08-0.33-0.13-0.5
				c-0.28-1.05-0.55-2.1-0.79-3.16c-0.1-0.44-0.18-0.89-0.27-1.33c-0.14-0.65-0.28-1.3-0.4-1.96c-0.03-0.16-0.05-0.31-0.07-0.47
				c-0.07-0.4-0.13-0.8-0.19-1.2c-0.13-0.82-0.25-1.65-0.36-2.48c-0.06-0.44-0.11-0.88-0.16-1.33c-0.1-0.84-0.17-1.69-0.24-2.54
				c-0.03-0.4-0.07-0.8-0.1-1.2c-0.08-1.21-0.14-2.43-0.16-3.66c0-0.03,0-0.05,0-0.08c-0.39-21.43,7.71-41.04,21.2-55.61l0,0
				c1.52-1.64,3.1-3.21,4.75-4.71c1.8-1.65,3.67-3.21,5.62-4.69c4.24-3.21,8.81-5.99,13.66-8.32c2.95-1.42,6-2.66,9.14-3.71
				c2.59-0.87,5.24-1.6,7.94-2.2c1.68-0.37,3.37-0.71,5.08-0.98c0.19-0.03,0.38-0.04,0.56-0.07c3.38-0.5,6.81-0.82,10.32-0.89
				c44.02-0.8,80.4,34.24,81.21,78.28c0.16,8.58-1.1,16.85-3.47,24.65L26.12-250c-14.42,8.27-27.52,15.67-38.49,21.8l-79.5-145.02
				V-373.23z M-243.77-109.69c-1.21,0.08-2.43,0.14-3.66,0.16c-0.03,0-0.05,0-0.08,0c-21.43,0.39-41.04-7.71-55.61-21.2l0,0
				c-1.64-1.52-3.21-3.1-4.71-4.75c-1.65-1.8-3.21-3.67-4.69-5.62c-3.21-4.24-5.99-8.81-8.32-13.66c-1.42-2.95-2.66-6-3.71-9.14
				c-0.87-2.59-1.6-5.24-2.2-7.94c-0.37-1.68-0.71-3.37-0.98-5.08c-0.03-0.19-0.04-0.38-0.07-0.56c-0.5-3.38-0.82-6.81-0.89-10.32
				c-0.8-44.02,34.24-80.4,78.28-81.21c8.58-0.16,16.85,1.1,24.65,3.47l141.38,26.48c8.28,14.42,15.67,27.52,21.8,38.49
				l-145.05,79.5c-0.47,0.29-0.95,0.57-1.43,0.85c-0.46,0.27-0.93,0.53-1.4,0.79c-0.61,0.34-1.23,0.67-1.85,0.99
				c-0.47,0.25-0.95,0.49-1.43,0.73c-0.05,0.02-0.09,0.05-0.14,0.07l0,0l0,0c-0.59,0.29-1.19,0.57-1.79,0.85
				c-0.47,0.22-0.95,0.44-1.43,0.65c-0.68,0.3-1.37,0.58-2.06,0.85c-0.46,0.19-0.92,0.38-1.39,0.56c-0.77,0.29-1.54,0.56-2.32,0.83
				c-0.4,0.14-0.8,0.29-1.2,0.42c-1.18,0.39-2.36,0.75-3.56,1.08c-0.17,0.05-0.33,0.08-0.5,0.13c-1.05,0.28-2.1,0.55-3.16,0.79
				c-0.44,0.1-0.89,0.18-1.33,0.27c-0.65,0.14-1.3,0.28-1.96,0.4c-0.16,0.03-0.31,0.05-0.47,0.07c-0.4,0.07-0.8,0.13-1.2,0.19
				c-0.82,0.13-1.65,0.25-2.48,0.36c-0.44,0.06-0.88,0.11-1.33,0.16c-0.84,0.1-1.69,0.17-2.54,0.24c-0.4,0.03-0.8,0.07-1.2,0.1
				H-243.77z M-103.43,37.48c-0.16-8.58,1.1-16.85,3.47-24.65l26.48-141.37c14.42-8.28,27.53-15.67,38.5-21.8L44.52-5.32
				c0.29,0.47,0.57,0.95,0.85,1.43c0.27,0.46,0.53,0.93,0.79,1.4c0.34,0.61,0.67,1.23,0.99,1.85c0.25,0.47,0.49,0.95,0.73,1.43
				c0.02,0.05,0.05,0.09,0.07,0.14l0,0l0,0c0.29,0.59,0.57,1.19,0.85,1.79c0.22,0.47,0.44,0.95,0.65,1.43
				c0.3,0.68,0.58,1.37,0.85,2.06c0.19,0.46,0.38,0.92,0.56,1.39c0.29,0.77,0.56,1.54,0.83,2.32c0.14,0.4,0.29,0.8,0.42,1.2
				c0.39,1.18,0.75,2.36,1.08,3.56c0.05,0.17,0.08,0.33,0.13,0.5c0.28,1.05,0.55,2.1,0.79,3.16c0.1,0.44,0.18,0.89,0.27,1.33
				c0.14,0.65,0.28,1.3,0.4,1.96c0.03,0.15,0.05,0.31,0.07,0.47c0.07,0.4,0.13,0.8,0.19,1.2c0.13,0.82,0.25,1.65,0.36,2.48
				c0.06,0.44,0.11,0.88,0.16,1.33c0.1,0.84,0.17,1.69,0.24,2.54c0.03,0.4,0.07,0.8,0.1,1.2c0.08,1.21,0.14,2.43,0.16,3.66
				c0,0.03,0,0.05,0,0.08c0.39,21.43-7.71,41.04-21.2,55.61l0,0c-1.52,1.64-3.1,3.21-4.75,4.71c-1.8,1.65-3.67,3.21-5.62,4.69
				c-4.24,3.21-8.81,5.99-13.66,8.32c-2.95,1.42-6,2.66-9.14,3.71c-2.59,0.87-5.24,1.6-7.94,2.2c-1.68,0.37-3.37,0.71-5.08,0.98
				c-0.19,0.03-0.38,0.04-0.56,0.07c-3.38,0.5-6.81,0.83-10.32,0.89c-44.03,0.8-80.4-34.24-81.21-78.28L-103.43,37.48z"/>
			<path class="st3" d="M28.93,921.33c56.86-22.76,96.76-80.57,95.66-140.83c-0.69-37.89-17.94-56.77-53.09-114.24
				c-2.76-4.51-5.61-9.23-8.59-14.24c-2.48-4.16-4.92-8.3-7.33-12.4c5.94,3.14,11.99,6.36,18.1,9.63
				c11.08,5.93,20.89,11.42,29.72,16.46c47.27,26.97,66.52,41.1,100.92,40.48c76.71-1.4,147.06-69.08,145.56-150.98
				c-0.32-17.57-3.93-34.37-10.15-49.9c-22.76-56.86-80.57-96.76-140.83-95.66c-37.89,0.69-56.77,17.94-114.24,53.09
				c-4.51,2.76-9.23,5.61-14.24,8.59c-4.17,2.48-8.31,4.93-12.41,7.34c3.14-5.95,6.36-12,9.64-18.11
				c5.93-11.08,11.42-20.89,16.46-29.72c26.98-47.27,41.1-66.52,40.48-100.92c-1.4-76.71-69.08-147.06-150.98-145.56
				c-17.57,0.32-34.37,3.93-49.9,10.15c-56.86,22.76-96.76,80.57-95.66,140.83c0.69,37.89,17.94,56.77,53.09,114.24
				c2.76,4.51,5.61,9.23,8.59,14.24c2.48,4.17,4.93,8.31,7.34,12.42c-5.95-3.14-12-6.36-18.11-9.64
				c-11.08-5.93-20.89-11.42-29.72-16.46c-47.27-26.98-66.52-41.1-100.92-40.48c-76.71,1.4-147.06,69.08-145.56,150.98
				c0.32,17.57,3.93,34.37,10.15,49.9c22.76,56.86,80.57,96.76,140.83,95.66c37.89-0.69,56.77-17.94,114.24-53.09
				c4.51-2.76,9.23-5.61,14.24-8.59c4.17-2.48,8.3-4.92,12.4-7.33c-3.14,5.94-6.36,11.99-9.63,18.1
				c-5.93,11.08-11.42,20.89-16.46,29.72c-26.97,47.27-41.1,66.52-40.48,100.92c1.4,76.71,69.08,147.06,150.98,145.56
				C-3.4,931.17,13.4,927.56,28.93,921.33L28.93,921.33z M196.42,478.34c1.21-0.08,2.43-0.14,3.66-0.16c0.03,0,0.05,0,0.08,0
				c21.43-0.39,41.04,7.71,55.61,21.2l0,0c1.64,1.52,3.21,3.1,4.71,4.75c1.65,1.8,3.21,3.67,4.69,5.62
				c3.21,4.24,5.99,8.81,8.32,13.66c1.42,2.95,2.66,6,3.71,9.14c0.87,2.59,1.6,5.24,2.2,7.94c0.37,1.68,0.71,3.37,0.98,5.08
				c0.03,0.19,0.04,0.38,0.07,0.56c0.5,3.38,0.83,6.81,0.89,10.32c0.8,44.03-34.24,80.4-78.28,81.21
				c-8.58,0.16-16.85-1.1-24.65-3.47L37.04,607.71c-8.28-14.42-15.67-27.52-21.8-38.5l145.01-79.5c0.47-0.29,0.95-0.57,1.43-0.85
				c0.46-0.27,0.93-0.53,1.4-0.79c0.61-0.34,1.23-0.67,1.85-0.99c0.47-0.25,0.95-0.49,1.43-0.73c0.05-0.02,0.09-0.05,0.14-0.07l0,0
				l0,0c0.59-0.29,1.19-0.57,1.79-0.85c0.47-0.22,0.95-0.44,1.43-0.65c0.68-0.3,1.37-0.58,2.06-0.85c0.46-0.19,0.92-0.38,1.39-0.56
				c0.77-0.29,1.54-0.56,2.32-0.83c0.4-0.14,0.8-0.29,1.2-0.42c1.18-0.39,2.36-0.75,3.56-1.08c0.17-0.05,0.33-0.08,0.5-0.13
				c1.05-0.28,2.1-0.55,3.16-0.79c0.44-0.1,0.89-0.18,1.33-0.27c0.65-0.14,1.3-0.28,1.96-0.4c0.15-0.03,0.31-0.05,0.47-0.07
				c0.4-0.07,0.8-0.13,1.2-0.19c0.82-0.13,1.65-0.25,2.48-0.36c0.44-0.06,0.88-0.11,1.33-0.16c0.84-0.1,1.69-0.17,2.54-0.24
				C195.62,478.4,196.02,478.36,196.42,478.34L196.42,478.34z M-91.87,373.96c-0.29-0.47-0.57-0.95-0.85-1.43
				c-0.27-0.46-0.53-0.93-0.79-1.4c-0.34-0.61-0.67-1.23-0.99-1.85c-0.25-0.47-0.49-0.95-0.73-1.43c-0.02-0.05-0.05-0.09-0.07-0.14
				l0,0l0,0c-0.29-0.59-0.57-1.19-0.85-1.79c-0.22-0.47-0.44-0.95-0.65-1.43c-0.3-0.68-0.58-1.37-0.85-2.06
				c-0.19-0.46-0.38-0.92-0.56-1.39c-0.29-0.77-0.56-1.54-0.83-2.32c-0.14-0.4-0.29-0.8-0.42-1.2c-0.39-1.18-0.75-2.36-1.08-3.56
				c-0.05-0.17-0.08-0.33-0.13-0.5c-0.28-1.05-0.55-2.1-0.79-3.16c-0.1-0.44-0.18-0.89-0.27-1.33c-0.14-0.65-0.28-1.3-0.4-1.96
				c-0.03-0.16-0.05-0.31-0.07-0.47c-0.07-0.4-0.13-0.8-0.19-1.2c-0.13-0.82-0.25-1.65-0.36-2.48c-0.06-0.44-0.11-0.88-0.16-1.33
				c-0.1-0.84-0.17-1.69-0.24-2.54c-0.03-0.4-0.07-0.8-0.1-1.2c-0.08-1.21-0.14-2.43-0.16-3.66c0-0.03,0-0.05,0-0.08
				c-0.39-21.43,7.71-41.04,21.2-55.61l0,0c1.52-1.64,3.1-3.21,4.75-4.71c1.8-1.65,3.67-3.21,5.62-4.69
				c4.24-3.21,8.81-5.99,13.66-8.32c2.95-1.42,6-2.66,9.14-3.71c2.59-0.87,5.24-1.6,7.94-2.2c1.68-0.37,3.37-0.71,5.08-0.98
				c0.19-0.03,0.38-0.04,0.56-0.07c3.38-0.5,6.81-0.82,10.32-0.89c44.02-0.8,80.4,34.24,81.21,78.28c0.16,8.58-1.1,16.85-3.47,24.65
				L26.12,497.18c-14.42,8.27-27.52,15.67-38.49,21.8L-91.87,373.96L-91.87,373.96z M-243.77,637.49c-1.21,0.08-2.43,0.14-3.66,0.16
				c-0.03,0-0.05,0-0.08,0c-21.43,0.39-41.04-7.71-55.61-21.2l0,0c-1.64-1.52-3.21-3.1-4.71-4.75c-1.65-1.8-3.21-3.67-4.69-5.62
				c-3.21-4.24-5.99-8.81-8.32-13.66c-1.42-2.95-2.66-6-3.71-9.14c-0.87-2.59-1.6-5.24-2.2-7.94c-0.37-1.68-0.71-3.37-0.98-5.08
				c-0.03-0.19-0.04-0.38-0.07-0.56c-0.5-3.38-0.82-6.81-0.89-10.32c-0.8-44.02,34.24-80.4,78.28-81.21
				c8.58-0.16,16.85,1.1,24.65,3.47l141.38,26.48c8.28,14.42,15.67,27.52,21.8,38.49l-145.02,79.5c-0.47,0.29-0.95,0.57-1.43,0.85
				c-0.46,0.27-0.93,0.53-1.4,0.79c-0.61,0.34-1.23,0.67-1.85,0.99c-0.47,0.25-0.95,0.49-1.43,0.73c-0.05,0.02-0.09,0.05-0.14,0.07
				l0,0l0,0c-0.59,0.29-1.19,0.57-1.79,0.85c-0.47,0.22-0.95,0.44-1.43,0.65c-0.68,0.3-1.37,0.58-2.06,0.85
				c-0.46,0.19-0.92,0.38-1.39,0.56c-0.77,0.29-1.54,0.56-2.32,0.83c-0.4,0.14-0.8,0.29-1.2,0.42c-1.18,0.39-2.36,0.75-3.56,1.08
				c-0.17,0.05-0.33,0.08-0.5,0.13c-1.05,0.28-2.1,0.55-3.16,0.79c-0.44,0.1-0.89,0.18-1.33,0.27c-0.65,0.14-1.3,0.28-1.96,0.4
				c-0.16,0.03-0.31,0.05-0.47,0.07c-0.4,0.07-0.8,0.13-1.2,0.19c-0.82,0.13-1.65,0.25-2.48,0.36c-0.44,0.06-0.88,0.11-1.33,0.16
				c-0.84,0.1-1.69,0.17-2.54,0.24C-242.97,637.42-243.37,637.46-243.77,637.49L-243.77,637.49z M-103.43,784.66
				c-0.16-8.58,1.1-16.85,3.47-24.65l26.48-141.37c14.42-8.28,27.53-15.67,38.5-21.8l79.5,145.01c0.29,0.47,0.57,0.95,0.85,1.43
				c0.27,0.46,0.53,0.93,0.79,1.4c0.34,0.61,0.67,1.23,0.99,1.85c0.25,0.47,0.49,0.95,0.73,1.43c0.02,0.05,0.05,0.09,0.07,0.14l0,0
				l0,0c0.29,0.59,0.57,1.19,0.85,1.79c0.22,0.47,0.44,0.95,0.65,1.43c0.3,0.68,0.58,1.37,0.85,2.06c0.19,0.46,0.38,0.92,0.56,1.39
				c0.29,0.77,0.56,1.54,0.83,2.32c0.14,0.4,0.29,0.8,0.42,1.2c0.39,1.18,0.75,2.36,1.08,3.56c0.05,0.17,0.08,0.33,0.13,0.5
				c0.28,1.05,0.55,2.1,0.79,3.16c0.1,0.44,0.18,0.89,0.27,1.33c0.14,0.65,0.28,1.3,0.4,1.96c0.03,0.15,0.05,0.31,0.07,0.47
				c0.07,0.4,0.13,0.8,0.19,1.2c0.13,0.82,0.25,1.65,0.36,2.48c0.06,0.44,0.11,0.88,0.16,1.33c0.1,0.84,0.17,1.69,0.24,2.54
				c0.03,0.4,0.07,0.8,0.1,1.2c0.08,1.21,0.14,2.43,0.16,3.66c0,0.03,0,0.05,0,0.08c0.39,21.43-7.71,41.04-21.2,55.61l0,0
				c-1.52,1.64-3.1,3.21-4.75,4.71c-1.8,1.65-3.67,3.21-5.62,4.69c-4.24,3.21-8.81,5.99-13.66,8.32c-2.95,1.42-6,2.66-9.14,3.71
				c-2.59,0.87-5.24,1.6-7.94,2.2c-1.68,0.37-3.37,0.71-5.08,0.98c-0.19,0.03-0.38,0.04-0.56,0.07c-3.38,0.5-6.81,0.83-10.32,0.89
				c-44.03,0.8-80.4-34.24-81.21-78.28L-103.43,784.66z"/>
			<path class="st3" d="M509.49,547.74c56.86-22.76,96.76-80.57,95.66-140.83c-0.69-37.89-17.94-56.77-53.09-114.24
				c-2.76-4.51-5.61-9.23-8.59-14.24c-2.48-4.16-4.92-8.3-7.33-12.4c5.94,3.14,11.99,6.36,18.1,9.63
				c11.08,5.93,20.89,11.42,29.72,16.46c47.27,26.97,66.52,41.1,100.92,40.48c76.71-1.4,147.06-69.08,145.56-150.98
				c-0.32-17.57-3.93-34.37-10.15-49.9c-22.76-56.86-80.57-96.76-140.83-95.66C641.57,36.75,622.69,54,565.22,89.15
				c-4.51,2.76-9.23,5.61-14.24,8.59c-4.17,2.48-8.31,4.93-12.41,7.34c3.14-5.95,6.36-12,9.64-18.11
				c5.93-11.08,11.42-20.89,16.46-29.72c26.98-47.27,41.1-66.52,40.48-100.92c-1.4-76.71-69.08-147.06-150.98-145.56
				c-17.57,0.32-34.37,3.93-49.9,10.15c-56.86,22.76-96.76,80.57-95.66,140.83c0.69,37.89,17.94,56.77,53.09,114.24
				c2.76,4.51,5.61,9.23,8.59,14.24c2.48,4.17,4.93,8.31,7.34,12.42c-5.95-3.14-12-6.36-18.11-9.64
				c-11.08-5.93-20.89-11.42-29.72-16.46c-47.27-26.98-66.52-41.1-100.92-40.48c-76.71,1.4-147.06,69.08-145.56,150.98
				c0.32,17.57,3.93,34.37,10.15,49.9c22.76,56.86,80.57,96.76,140.83,95.66c37.89-0.69,56.77-17.94,114.24-53.09
				c4.51-2.76,9.23-5.61,14.24-8.59c4.17-2.48,8.3-4.92,12.4-7.33c-3.14,5.94-6.36,11.99-9.63,18.1
				c-5.93,11.08-11.42,20.89-16.46,29.72c-26.97,47.27-41.1,66.52-40.48,100.92c1.4,76.71,69.08,147.06,150.98,145.56
				c17.57-0.32,34.37-3.93,49.9-10.15L509.49,547.74z M676.98,104.75c1.21-0.08,2.43-0.14,3.66-0.16c0.03,0,0.05,0,0.08,0
				c21.43-0.39,41.04,7.71,55.61,21.2l0,0c1.64,1.52,3.21,3.1,4.71,4.75c1.65,1.8,3.21,3.67,4.69,5.62
				c3.21,4.24,5.99,8.81,8.32,13.66c1.42,2.95,2.66,6,3.71,9.14c0.87,2.59,1.6,5.24,2.2,7.94c0.37,1.68,0.71,3.37,0.98,5.08
				c0.03,0.19,0.04,0.38,0.07,0.56c0.5,3.38,0.83,6.81,0.89,10.32c0.8,44.03-34.24,80.4-78.28,81.21
				c-8.58,0.16-16.85-1.1-24.65-3.47L517.6,234.12c-8.28-14.42-15.67-27.52-21.8-38.5l145.01-79.5c0.47-0.29,0.95-0.57,1.43-0.85
				c0.46-0.27,0.93-0.53,1.4-0.79c0.61-0.34,1.23-0.67,1.85-0.99c0.47-0.25,0.95-0.49,1.43-0.73c0.05-0.02,0.09-0.05,0.14-0.07l0,0
				l0,0c0.59-0.29,1.19-0.57,1.79-0.85c0.47-0.22,0.95-0.44,1.43-0.65c0.68-0.3,1.37-0.58,2.06-0.85c0.46-0.19,0.92-0.38,1.39-0.56
				c0.77-0.29,1.54-0.56,2.32-0.83c0.4-0.14,0.8-0.29,1.2-0.42c1.18-0.39,2.36-0.75,3.56-1.08c0.17-0.05,0.33-0.08,0.5-0.13
				c1.05-0.28,2.1-0.55,3.16-0.79c0.44-0.1,0.89-0.18,1.33-0.27c0.65-0.14,1.3-0.28,1.96-0.4c0.15-0.03,0.31-0.05,0.47-0.07
				c0.4-0.07,0.8-0.13,1.2-0.19c0.82-0.13,1.65-0.25,2.48-0.36c0.44-0.06,0.88-0.11,1.33-0.16c0.84-0.1,1.69-0.17,2.54-0.24
				c0.4-0.03,0.8-0.07,1.2-0.1V104.75z M388.69,0.37c-0.29-0.47-0.57-0.95-0.85-1.43c-0.27-0.46-0.53-0.93-0.79-1.4
				c-0.34-0.61-0.67-1.23-0.99-1.85c-0.25-0.47-0.49-0.95-0.73-1.43c-0.02-0.05-0.05-0.09-0.07-0.14l0,0l0,0
				c-0.29-0.59-0.57-1.19-0.85-1.79c-0.22-0.47-0.44-0.95-0.65-1.43c-0.3-0.68-0.58-1.37-0.85-2.06c-0.19-0.46-0.38-0.92-0.56-1.39
				c-0.29-0.77-0.56-1.54-0.83-2.32c-0.14-0.4-0.29-0.8-0.42-1.2c-0.39-1.18-0.75-2.36-1.08-3.56c-0.05-0.17-0.08-0.33-0.13-0.5
				c-0.28-1.05-0.55-2.1-0.79-3.16c-0.1-0.44-0.18-0.89-0.27-1.33c-0.14-0.65-0.28-1.3-0.4-1.96c-0.03-0.16-0.05-0.31-0.07-0.47
				c-0.07-0.4-0.13-0.8-0.19-1.2c-0.13-0.82-0.25-1.65-0.36-2.48c-0.06-0.44-0.11-0.88-0.16-1.33c-0.1-0.84-0.17-1.69-0.24-2.54
				c-0.03-0.4-0.07-0.8-0.1-1.2c-0.08-1.21-0.14-2.43-0.16-3.66c0-0.03,0-0.05,0-0.08c-0.39-21.43,7.71-41.04,21.2-55.61l0,0
				c1.52-1.64,3.1-3.21,4.75-4.71c1.8-1.65,3.67-3.21,5.62-4.69c4.24-3.21,8.81-5.99,13.66-8.32c2.95-1.42,6-2.66,9.14-3.71
				c2.59-0.87,5.24-1.6,7.94-2.2c1.68-0.37,3.37-0.71,5.08-0.98c0.19-0.03,0.38-0.04,0.56-0.07c3.38-0.5,6.81-0.82,10.32-0.89
				c44.02-0.8,80.4,34.24,81.21,78.28c0.16,8.58-1.1,16.85-3.47,24.65l-26.48,141.38c-14.42,8.27-27.52,15.67-38.49,21.8
				L388.69,0.37z M236.79,263.9c-1.21,0.08-2.43,0.14-3.66,0.16c-0.03,0-0.05,0-0.08,0c-21.43,0.39-41.04-7.71-55.61-21.2l0,0
				c-1.64-1.52-3.21-3.1-4.71-4.75c-1.65-1.8-3.21-3.67-4.69-5.62c-3.21-4.24-5.99-8.81-8.32-13.66c-1.42-2.95-2.66-6-3.71-9.14
				c-0.87-2.59-1.6-5.24-2.2-7.94c-0.37-1.68-0.71-3.37-0.98-5.08c-0.03-0.19-0.04-0.38-0.07-0.56c-0.5-3.38-0.82-6.81-0.89-10.32
				c-0.8-44.02,34.24-80.4,78.28-81.21c8.58-0.16,16.85,1.1,24.65,3.47l141.38,26.48c8.28,14.42,15.67,27.52,21.8,38.49
				l-145.02,79.5c-0.47,0.29-0.95,0.57-1.43,0.85c-0.46,0.27-0.93,0.53-1.4,0.79c-0.61,0.34-1.23,0.67-1.85,0.99
				c-0.47,0.25-0.95,0.49-1.43,0.73c-0.05,0.02-0.09,0.05-0.14,0.07l0,0l0,0c-0.59,0.29-1.19,0.57-1.79,0.85
				c-0.47,0.22-0.95,0.44-1.43,0.65c-0.68,0.3-1.37,0.58-2.06,0.85c-0.46,0.19-0.92,0.38-1.39,0.56c-0.77,0.29-1.54,0.56-2.32,0.83
				c-0.4,0.14-0.8,0.29-1.2,0.42c-1.18,0.39-2.36,0.75-3.56,1.08c-0.17,0.05-0.33,0.08-0.5,0.13c-1.05,0.28-2.1,0.55-3.16,0.79
				c-0.44,0.1-0.89,0.18-1.33,0.27c-0.65,0.14-1.3,0.28-1.96,0.4c-0.16,0.03-0.31,0.05-0.47,0.07c-0.4,0.07-0.8,0.13-1.2,0.19
				c-0.82,0.13-1.65,0.25-2.48,0.36c-0.44,0.06-0.88,0.11-1.33,0.16c-0.84,0.1-1.69,0.17-2.54,0.24
				C237.59,263.83,237.19,263.87,236.79,263.9L236.79,263.9z M377.13,411.07c-0.16-8.58,1.1-16.85,3.47-24.65l26.48-141.37
				c14.42-8.28,27.53-15.67,38.5-21.8l79.5,145.01c0.29,0.47,0.57,0.95,0.85,1.43c0.27,0.46,0.53,0.93,0.79,1.4
				c0.34,0.61,0.67,1.23,0.99,1.85c0.25,0.47,0.49,0.95,0.73,1.43c0.02,0.05,0.05,0.09,0.07,0.14l0,0l0,0
				c0.29,0.59,0.57,1.19,0.85,1.79c0.22,0.47,0.44,0.95,0.65,1.43c0.3,0.68,0.58,1.37,0.85,2.06c0.19,0.46,0.38,0.92,0.56,1.39
				c0.29,0.77,0.56,1.54,0.83,2.32c0.14,0.4,0.29,0.8,0.42,1.2c0.39,1.18,0.75,2.36,1.08,3.56c0.05,0.17,0.08,0.33,0.13,0.5
				c0.28,1.05,0.55,2.1,0.79,3.16c0.1,0.44,0.18,0.89,0.27,1.33c0.14,0.65,0.28,1.3,0.4,1.96c0.03,0.15,0.05,0.31,0.07,0.47
				c0.07,0.4,0.13,0.8,0.19,1.2c0.13,0.82,0.25,1.65,0.36,2.48c0.06,0.44,0.11,0.88,0.16,1.33c0.1,0.84,0.17,1.69,0.24,2.54
				c0.03,0.4,0.07,0.8,0.1,1.2c0.08,1.21,0.14,2.43,0.16,3.66c0,0.03,0,0.05,0,0.08c0.39,21.43-7.71,41.04-21.2,55.61l0,0
				c-1.52,1.64-3.1,3.21-4.75,4.71c-1.8,1.65-3.67,3.21-5.62,4.69c-4.24,3.21-8.81,5.99-13.66,8.32c-2.95,1.42-6,2.66-9.14,3.71
				c-2.59,0.87-5.24,1.6-7.94,2.2c-1.68,0.37-3.37,0.71-5.08,0.98c-0.19,0.03-0.38,0.04-0.56,0.07c-3.38,0.5-6.81,0.83-10.32,0.89
				C414.32,490.15,377.95,455.11,377.13,411.07L377.13,411.07z"/>
			<path class="st3" d="M508.92,1294.92c56.86-22.76,96.76-80.57,95.66-140.83c-0.69-37.89-17.94-56.77-53.09-114.24
				c-2.76-4.51-5.61-9.23-8.59-14.24c-2.48-4.16-4.92-8.3-7.33-12.4c5.94,3.14,11.99,6.36,18.1,9.63
				c11.08,5.93,20.89,11.42,29.72,16.46c47.27,26.97,66.52,41.1,100.92,40.48c76.71-1.4,147.06-69.08,145.56-150.98
				c-0.32-17.57-3.93-34.37-10.15-49.9c-22.76-56.86-80.57-96.76-140.83-95.66c-37.89,0.69-56.77,17.94-114.24,53.09
				c-4.51,2.76-9.23,5.61-14.24,8.59c-4.17,2.48-8.31,4.93-12.41,7.34c3.14-5.95,6.36-12,9.64-18.11
				c5.93-11.08,11.42-20.89,16.46-29.72c26.98-47.27,41.1-66.52,40.48-100.92c-1.4-76.71-69.08-147.06-150.98-145.56
				c-17.57,0.32-34.37,3.93-49.9,10.15c-56.86,22.76-96.76,80.57-95.66,140.83c0.69,37.89,17.94,56.77,53.09,114.24
				c2.76,4.51,5.61,9.23,8.59,14.24c2.48,4.17,4.93,8.31,7.34,12.42c-5.95-3.14-12-6.36-18.11-9.64
				c-11.08-5.93-20.89-11.42-29.72-16.46c-47.27-26.98-66.52-41.1-100.92-40.48c-76.71,1.4-147.06,69.08-145.56,150.98
				c0.32,17.57,3.93,34.37,10.15,49.9c22.76,56.86,80.57,96.76,140.83,95.66c37.89-0.69,56.77-17.94,114.24-53.09
				c4.51-2.76,9.23-5.61,14.24-8.59c4.17-2.48,8.3-4.92,12.4-7.33c-3.14,5.94-6.36,11.99-9.63,18.1
				c-5.93,11.08-11.42,20.89-16.46,29.72c-26.97,47.27-41.1,66.52-40.48,100.92c1.4,76.71,69.08,147.06,150.98,145.56
				c17.57-0.32,34.37-3.93,49.9-10.15L508.92,1294.92z M676.41,851.93c1.21-0.08,2.43-0.14,3.66-0.16c0.03,0,0.05,0,0.08,0
				c21.43-0.39,41.04,7.71,55.61,21.2l0,0c1.64,1.52,3.21,3.1,4.71,4.75c1.65,1.8,3.21,3.67,4.69,5.62
				c3.21,4.24,5.99,8.81,8.32,13.66c1.42,2.95,2.66,6,3.71,9.14c0.87,2.59,1.6,5.24,2.2,7.94c0.37,1.68,0.71,3.37,0.98,5.08
				c0.03,0.19,0.04,0.38,0.07,0.56c0.5,3.38,0.83,6.81,0.89,10.32c0.8,44.03-34.24,80.4-78.28,81.21
				c-8.58,0.16-16.85-1.1-24.65-3.47L517.03,981.3c-8.28-14.42-15.67-27.52-21.8-38.5l145.01-79.5c0.47-0.29,0.95-0.57,1.43-0.85
				c0.46-0.27,0.93-0.53,1.4-0.79c0.61-0.34,1.23-0.67,1.85-0.99c0.47-0.25,0.95-0.49,1.43-0.73c0.05-0.02,0.09-0.05,0.14-0.07l0,0
				l0,0c0.59-0.29,1.19-0.57,1.79-0.85c0.47-0.22,0.95-0.44,1.43-0.65c0.68-0.3,1.37-0.58,2.06-0.85c0.46-0.19,0.92-0.38,1.39-0.56
				c0.77-0.29,1.54-0.56,2.32-0.83c0.4-0.14,0.8-0.29,1.2-0.42c1.18-0.39,2.36-0.75,3.56-1.08c0.17-0.05,0.33-0.08,0.5-0.13
				c1.05-0.28,2.1-0.55,3.16-0.79c0.44-0.1,0.89-0.18,1.33-0.27c0.65-0.14,1.3-0.28,1.96-0.4c0.15-0.03,0.31-0.05,0.47-0.07
				c0.4-0.07,0.8-0.13,1.2-0.19c0.82-0.13,1.65-0.25,2.48-0.36c0.44-0.06,0.88-0.11,1.33-0.16c0.84-0.1,1.69-0.17,2.54-0.24
				C675.61,851.99,676.01,851.95,676.41,851.93L676.41,851.93z M388.12,747.55c-0.29-0.47-0.57-0.95-0.85-1.43
				c-0.27-0.46-0.53-0.93-0.79-1.4c-0.34-0.61-0.67-1.23-0.99-1.85c-0.25-0.47-0.49-0.95-0.73-1.43c-0.02-0.05-0.05-0.09-0.07-0.14
				l0,0l0,0c-0.29-0.59-0.57-1.19-0.85-1.79c-0.22-0.47-0.44-0.95-0.65-1.43c-0.3-0.68-0.58-1.37-0.85-2.06
				c-0.19-0.46-0.38-0.92-0.56-1.39c-0.29-0.77-0.56-1.54-0.83-2.32c-0.14-0.4-0.29-0.8-0.42-1.2c-0.39-1.18-0.75-2.36-1.08-3.56
				c-0.05-0.17-0.08-0.33-0.13-0.5c-0.28-1.05-0.55-2.1-0.79-3.16c-0.1-0.44-0.18-0.89-0.27-1.33c-0.14-0.65-0.28-1.3-0.4-1.96
				c-0.03-0.16-0.05-0.31-0.07-0.47c-0.07-0.4-0.13-0.8-0.19-1.2c-0.13-0.82-0.25-1.65-0.36-2.48c-0.06-0.44-0.11-0.88-0.16-1.33
				c-0.1-0.84-0.17-1.69-0.24-2.54c-0.03-0.4-0.07-0.8-0.1-1.2c-0.08-1.21-0.14-2.43-0.16-3.66c0-0.03,0-0.05,0-0.08
				c-0.39-21.43,7.71-41.04,21.2-55.61l0,0c1.52-1.64,3.1-3.21,4.75-4.71c1.8-1.65,3.67-3.21,5.62-4.69
				c4.24-3.21,8.81-5.99,13.66-8.32c2.95-1.42,6-2.66,9.14-3.71c2.59-0.87,5.24-1.6,7.94-2.2c1.68-0.37,3.37-0.71,5.08-0.98
				c0.19-0.03,0.38-0.04,0.56-0.07c3.38-0.5,6.81-0.82,10.32-0.89c44.02-0.8,80.4,34.24,81.21,78.28c0.16,8.58-1.1,16.85-3.47,24.65
				l-26.48,141.38c-14.42,8.27-27.52,15.67-38.49,21.8L388.12,747.55L388.12,747.55z M236.22,1011.08
				c-1.21,0.08-2.43,0.14-3.66,0.16c-0.03,0-0.05,0-0.08,0c-21.43,0.39-41.04-7.71-55.61-21.2l0,0c-1.64-1.52-3.21-3.1-4.71-4.75
				c-1.65-1.8-3.21-3.67-4.69-5.62c-3.21-4.24-5.99-8.81-8.32-13.66c-1.42-2.95-2.66-6-3.71-9.14c-0.87-2.59-1.6-5.24-2.2-7.94
				c-0.37-1.68-0.71-3.37-0.98-5.08c-0.03-0.19-0.04-0.38-0.07-0.56c-0.5-3.38-0.82-6.81-0.89-10.32
				c-0.8-44.02,34.24-80.4,78.28-81.21c8.58-0.16,16.85,1.1,24.65,3.47l141.38,26.48c8.28,14.42,15.67,27.52,21.8,38.49
				l-145.02,79.5c-0.47,0.29-0.95,0.57-1.43,0.85c-0.46,0.27-0.93,0.53-1.4,0.79c-0.61,0.34-1.23,0.67-1.85,0.99
				c-0.47,0.25-0.95,0.49-1.43,0.73c-0.05,0.02-0.09,0.05-0.14,0.07l0,0l0,0c-0.59,0.29-1.19,0.57-1.79,0.85
				c-0.47,0.22-0.95,0.44-1.43,0.65c-0.68,0.3-1.37,0.58-2.06,0.85c-0.46,0.19-0.92,0.38-1.39,0.56c-0.77,0.29-1.54,0.56-2.32,0.83
				c-0.4,0.14-0.8,0.29-1.2,0.42c-1.18,0.39-2.36,0.75-3.56,1.08c-0.17,0.05-0.33,0.08-0.5,0.13c-1.05,0.28-2.1,0.55-3.16,0.79
				c-0.44,0.1-0.89,0.18-1.33,0.27c-0.65,0.14-1.3,0.28-1.96,0.4c-0.16,0.03-0.31,0.05-0.47,0.07c-0.4,0.07-0.8,0.13-1.2,0.19
				c-0.82,0.13-1.65,0.25-2.48,0.36c-0.44,0.06-0.88,0.11-1.33,0.16c-0.84,0.1-1.69,0.17-2.54,0.24
				C237.02,1011.01,236.62,1011.05,236.22,1011.08L236.22,1011.08z M376.56,1158.25c-0.16-8.58,1.1-16.85,3.47-24.65l26.48-141.37
				c14.42-8.28,27.53-15.67,38.5-21.8l79.5,145.01c0.29,0.47,0.57,0.95,0.85,1.43c0.27,0.46,0.53,0.93,0.79,1.4
				c0.34,0.61,0.67,1.23,0.99,1.85c0.25,0.47,0.49,0.95,0.73,1.43c0.02,0.05,0.05,0.09,0.07,0.14l0,0l0,0
				c0.29,0.59,0.57,1.19,0.85,1.79c0.22,0.47,0.44,0.95,0.65,1.43c0.3,0.68,0.58,1.37,0.85,2.06c0.19,0.46,0.38,0.92,0.56,1.39
				c0.29,0.77,0.56,1.54,0.83,2.32c0.14,0.4,0.29,0.8,0.42,1.2c0.39,1.18,0.75,2.36,1.08,3.56c0.05,0.17,0.08,0.33,0.13,0.5
				c0.28,1.05,0.55,2.1,0.79,3.16c0.1,0.44,0.18,0.89,0.27,1.33c0.14,0.65,0.28,1.3,0.4,1.96c0.03,0.15,0.05,0.31,0.07,0.47
				c0.07,0.4,0.13,0.8,0.19,1.2c0.13,0.82,0.25,1.65,0.36,2.48c0.06,0.44,0.11,0.88,0.16,1.33c0.1,0.84,0.17,1.69,0.24,2.54
				c0.03,0.4,0.07,0.8,0.1,1.2c0.08,1.21,0.14,2.43,0.16,3.66c0,0.03,0,0.05,0,0.08c0.39,21.43-7.71,41.04-21.2,55.61l0,0
				c-1.52,1.64-3.1,3.21-4.75,4.71c-1.8,1.65-3.67,3.21-5.62,4.69c-4.24,3.21-8.81,5.99-13.66,8.32c-2.95,1.42-6,2.66-9.14,3.71
				c-2.59,0.87-5.24,1.6-7.94,2.2c-1.68,0.37-3.37,0.71-5.08,0.98c-0.19,0.03-0.38,0.04-0.56,0.07c-3.38,0.5-6.81,0.83-10.32,0.89
				C413.75,1237.33,377.38,1202.29,376.56,1158.25L376.56,1158.25z"/>
		</g>
	</g>
</g>
<rect y="0" class="st4" width="403.53" height="743.25"/>
</svg>
