<?xml version="1.0" encoding="utf-8"?>
<!-- Generator: Adobe Illustrator 26.4.1, SVG Export Plug-In . SVG Version: 6.00 Build 0)  -->
<svg version="1.1" id="Calque_1" xmlns="http://www.w3.org/2000/svg" xmlns:xlink="http://www.w3.org/1999/xlink" x="0px" y="0px"
	 viewBox="0 0 267 56" style="enable-background:new 0 0 267 56;" xml:space="preserve">
<style type="text/css">
	.st0{fill:none;}
	.st1{fill:#FDCF25;}
	.st2{fill:#FFFFFF;}
	.st3{fill:#8D8D8E;}
</style>
<g>
	<path class="st0" d="M241.9,21.2c-2.8,0-5.2,1-7,2.9c-1.9,1.9-2.8,4.3-2.8,7.1s1,5.2,2.8,7.1c1.8,1.8,4.2,2.8,7,2.8
		c2.8,0,5.2-1,7-2.8c1.8-1.9,2.8-4.3,2.8-7.1s-1-5.3-2.8-7.1C247.1,22.2,244.7,21.2,241.9,21.2z"/>
	<path class="st0" d="M154.2,21.2c-2.3,0-4.3,0.8-6,2.2c-1.7,1.5-2.6,3.2-2.7,5.3H162c0-2-0.8-3.8-2.3-5.3
		C158.2,22,156.3,21.2,154.2,21.2z"/>
	<path class="st0" d="M79.6,41.1c2.7,0,5-1,6.7-2.8c1.8-1.9,2.7-4.3,2.7-7.1s-0.9-5.3-2.7-7.1c-1.8-1.9-4-2.9-6.7-2.9
		c-2.6,0-4.8,1-6.6,2.9c-1.7,1.9-2.5,4.3-2.5,7.1s0.8,5.2,2.5,7.1C74.9,40.2,77,41.1,79.6,41.1z"/>
	<path class="st0" d="M231.6,8.8c-0.4,0-0.8,0.3-0.8,0.8c0,0.4,0.4,0.8,0.8,0.8c0.4,0,0.8-0.3,0.8-0.8C232.3,9.1,232,8.8,231.6,8.8z
		"/>
	<path class="st0" d="M236,9.2c-1,0-1.7-0.8-1.7-2c0-1.1,0.8-2,1.8-2c0.5,0,0.9,0.2,1.1,0.5l1-0.9c-0.5-0.6-1.3-0.9-2-0.9
		c-1.8,0-3.2,1.3-3.2,3.2c0,2,1.3,3.2,3.2,3.2c0.8,0,1.7-0.3,2.2-1l-1.1-0.8C237,9,236.5,9.2,236,9.2z"/>
	<path class="st0" d="M242.2,4c-1.8,0-3.2,1.3-3.2,3.2c0,2,1.3,3.2,3.2,3.2c1.9,0,3.2-1.2,3.2-3.2S244.1,4,242.2,4z M242.2,9.2
		c-1.1,0-1.8-0.8-1.8-2c0-1.1,0.7-2,1.8-2c1.1,0,1.8,0.8,1.9,2C244.1,8.4,243.4,9.2,242.2,9.2z"/>
	<polygon class="st0" points="250.1,8.1 248.7,4.2 246.7,4.2 246.7,10.2 248,10.2 248,5.6 249.6,10.2 250.6,10.2 252.2,5.6 
		252.2,10.2 253.5,10.2 253.6,10.2 253.6,4.2 251.5,4.2 	"/>
	<rect y="51.5" class="st1" width="131.6" height="1.7"/>
	<path class="st1" d="M242.2,5.3c-1.1,0-1.8,0.8-1.8,2c0,1.1,0.8,2,1.8,2c1.1,0,1.9-0.8,1.9-2C244.1,6.1,243.4,5.3,242.2,5.3z"/>
	<path class="st1" d="M251.2,0h-16.7c-4.4,0-7.1,2.4-7.1,7.4v13c2.7-3.6,7.4-5.9,13.9-5.9h9.8c4.8,0,7-2.1,7-6V6.6
		C258.2,2.2,256,0,251.2,0z M231.6,10.3c-0.4,0-0.8-0.3-0.8-0.8c0-0.4,0.3-0.8,0.8-0.8c0.4,0,0.8,0.3,0.8,0.8
		C232.3,10,231.9,10.3,231.6,10.3z M236.2,10.4c-1.9,0-3.2-1.2-3.2-3.2c0-1.9,1.4-3.2,3.2-3.2c0.7,0,1.5,0.3,2,0.9l-1,0.9
		c-0.3-0.3-0.6-0.5-1.1-0.5c-1,0-1.8,0.8-1.8,2c0,1.1,0.8,2,1.7,2c0.5,0,1-0.3,1.3-0.6l1.1,0.8C237.9,10,237,10.4,236.2,10.4z
		 M242.2,10.4c-1.9,0-3.2-1.2-3.2-3.2c0-1.9,1.4-3.2,3.2-3.2c1.9,0,3.2,1.2,3.2,3.2S244.1,10.4,242.2,10.4z M253.6,10.2L253.6,10.2
		h-1.4V5.6l-1.6,4.6h-1L248,5.6v4.6h-1.3v-6h2l1.4,3.9l1.4-3.9h2V10.2z"/>
	<path class="st2" d="M2.3,43.6c1.5,0.8,2.5,1.1,4.1,1.1c1.1,0,1.8-0.1,2.3-0.4v-3.2c-0.4,0.1-1,0.1-1.8,0.1c-2.4,0-3.2-1.1-3.2-3.9
		V8.8H0v28.7C0,40.6,0.8,42.7,2.3,43.6z"/>
	<path class="st2" d="M54.8,44.6c3.9,0,7.1-1.3,9.6-3.8l-2.3-2.6c-1.9,2-4.4,3-7.4,3c-2.8,0-5.2-1-7-2.8c-1.8-1.9-2.8-4.3-2.8-7.1
		s0.9-5.2,2.8-7.1c1.8-2,4.2-2.9,7-2.9c3,0,5.5,1,7.4,3l2.3-2.6c-2.5-2.5-5.7-3.8-9.6-3.8c-3.8-0.1-7,1.3-9.6,3.8
		c-2.6,2.5-3.9,5.7-3.9,9.6c0,3.8,1.3,7.1,3.9,9.6C47.8,43.4,50.9,44.6,54.8,44.6z"/>
	<path class="st2" d="M79.6,44.6c4.3,0,7.3-1.5,9.2-4.5c0.1,1.7,0.8,2.9,1.7,3.6c0.6,0.4,1.6,0.7,2.7,0.7c1,0,1.8-0.1,2.4-0.4v-2.8
		c-0.4,0.1-0.9,0.1-1.3,0.1c-1.4,0-1.9-1-1.9-3.2V18.5h-3.7v3.8c-1.5-2.5-4.5-4.5-9-4.5c-3.6,0-6.7,1.3-9.1,3.9
		c-2.5,2.5-3.8,5.7-3.8,9.6c0,3.8,1.3,7.1,3.8,9.6C72.9,43.4,76,44.6,79.6,44.6z M73.1,24.1c1.8-1.9,3.9-2.9,6.6-2.9
		c2.7,0,5,1,6.7,2.9c1.8,1.8,2.7,4.3,2.7,7.1s-1,5.2-2.7,7.1c-1.8,1.8-4,2.8-6.7,2.8c-2.6,0-4.8-1-6.6-2.8c-1.7-1.9-2.5-4.3-2.5-7.1
		S71.4,26,73.1,24.1z"/>
	<path class="st2" d="M101.9,43.6c1.5,0.8,2.5,1.1,4.1,1.1c1.1,0,1.8-0.1,2.3-0.4v-3.2c-0.4,0.1-1,0.1-1.8,0.1
		c-2.4,0-3.2-1.1-3.2-3.9V8.8h-3.7v28.7C99.6,40.6,100.4,42.7,101.9,43.6z"/>
	<path class="st2" d="M113.1,14.2c1.4,0,2.5-1.1,2.5-2.5s-1.1-2.5-2.5-2.5s-2.5,1.1-2.5,2.5S111.7,14.2,113.1,14.2z"/>
	<path class="st2" d="M114.9,38.5v-20h-3.8v20.6c0.1,3.6,1.6,5.4,4.6,5.4c1,0,1.8-0.1,2.4-0.4v-3.1c-0.4,0.1-0.9,0.1-1.3,0.1
		C115.4,41.2,114.9,40.4,114.9,38.5z"/>
	<path class="st2" d="M131,29.1c-3.8-1.5-5.5-2.5-5.5-4.6s1.6-3.2,4-3.2c2,0,3.4,0.8,4.3,2.5l3.1-1.6c-1.5-2.9-3.9-4.4-7.4-4.4
		c-4.5,0-7.6,2.8-7.6,6.7c0,3.7,2.3,5.6,6.9,7.4c2.4,1,4,1.8,5,2.4c1,0.6,1.4,1.6,1.4,2.9c0,2-1.4,3.9-5.6,3.9
		c-3.5,0-5.7-1.7-6.4-3.8l-3.2,1.2c1,3.9,4.7,6.1,9.6,6.1c6,0,9.3-3.3,9.3-7.4C138.8,33.3,136.3,31,131,29.1z"/>
	<path class="st2" d="M154.3,17.7c-3.7,0-6.7,1.3-9.1,3.8s-3.6,5.7-3.6,9.8v0.2c0,3.9,1.1,7.1,3.5,9.5c2.4,2.4,5.5,3.6,9.3,3.6
		c4.2,0,7.6-1.5,10.3-4.5l-2.5-2.4c-2.3,2.4-4.3,3.5-7.8,3.5c-5.3,0-8.8-3.6-9.1-9.2h20.6c0.1-0.5,0.1-1.1,0.1-1.6
		c0-3.6-1.1-6.6-3.2-9C160.5,19,157.7,17.7,154.3,17.7z M145.5,28.7c0.1-2,1.1-3.8,2.7-5.3c1.7-1.5,3.7-2.2,6-2.2
		c2.1,0,3.9,0.8,5.5,2.2c1.5,1.5,2.3,3.2,2.3,5.3H145.5z"/>
	<path class="st2" d="M174.1,22.8v-4.3h-3.7v25.4h3.8V29.1c0-4.3,2.9-7.1,6.9-7.1c1,0,1.8,0.1,2.5,0.3v-4c-0.4-0.1-1-0.1-1.6-0.1
		C178.3,18.1,175.5,20,174.1,22.8z"/>
	<path class="st2" d="M225.8,40.7L225.8,40.7c-0.4,0.1-0.7,0.1-1,0.1c-1.4,0-1.8-0.6-1.8-2.7V27.7c0-5.8-3.2-9.6-8.3-9.6
		c-3.8,0-6.4,1.7-7.9,5c-1.3-3.4-3.8-5-7.4-5c-3.4,0-5.9,1.8-7.2,4.7v-4.3h-3.8v25.4h3.8V28.7c0-4.3,2.6-7.1,6.1-7.1
		c3.6,0,5.7,2.6,5.7,6.9v15.3h3.8V28.7c0-4.3,2.5-7.1,6-7.1c3.4,0,5.5,2.7,5.5,6.9v9.9c0,5.1,2.9,5.7,4.8,5.7c0.6,0,1.2-0.1,1.6-0.3
		V40.7z"/>
	<path class="st2" d="M251.5,21.6c-2.6-2.5-5.8-3.9-9.6-3.9c-3.8,0-6.9,1.3-9.5,3.9c-2.6,2.5-3.9,5.7-3.9,9.6c0,3.8,1.3,7.1,3.9,9.6
		c2.6,2.5,5.8,3.8,9.6,3.8c3.8,0,6.9-1.3,9.6-3.8c2.6-2.5,3.9-5.8,3.9-9.6C255.4,27.3,254.1,24.2,251.5,21.6z M248.9,38.3
		c-1.8,1.8-4.2,2.8-7,2.8c-2.8,0-5.2-1-7-2.8c-1.8-1.9-2.8-4.3-2.8-7.1s0.9-5.2,2.8-7.1c1.8-1.9,4.2-2.9,7-2.9c2.8,0,5.2,1,7,2.9
		c1.8,1.8,2.8,4.3,2.8,7.1S250.8,36.4,248.9,38.3z"/>
	<path class="st2" d="M263.7,13.5c1-1,1-2.6,0-3.6c-1-1-2.5-1-3.5,0c-1,1-1,2.5,0,3.6C261.2,14.5,262.7,14.5,263.7,13.5z"/>
	<path class="st2" d="M265.7,41.1c-1.4,0-1.9-0.8-1.9-2.7v-20h-3.7v20.6c0,3.6,1.5,5.4,4.6,5.4c1,0,1.8-0.1,2.4-0.4v-3.1
		C266.6,41.1,266.2,41.1,265.7,41.1z"/>
	<path class="st1" d="M33.8,21.6c-2.6-2.5-5.8-3.9-9.6-3.9s-6.9,1.3-9.5,3.9c-2.6,2.5-3.9,5.7-3.9,9.6c0,3.8,1.3,7.1,3.9,9.6
		c2.6,2.5,5.8,3.8,9.5,3.8s6.9-1.3,9.6-3.8c2.6-2.5,3.9-5.8,3.9-9.6S36.4,24.2,33.8,21.6z M28.6,33.8c-0.1,0.2-0.3,0.4-0.4,0.6
		c-1.6,2.8-2.9,5.3-2.9,5.3C24.7,41,23.7,41,23,39.9c0-0.1-0.1-0.1-0.1-0.2c0,0-0.1-0.1-0.1-0.2l4.6-9.2c0,0,0,0,0,0
		c0-0.1,0.1-0.2,0.1-0.2l0,0l0,0c0.2-0.5,0.4-1,0.4-1.6c0-0.4-0.1-0.8-0.2-1.2c-0.5-1.5-1.9-2.5-3.5-2.5c-2.1,0-3.7,1.7-3.7,3.7
		c0,0.3,0,0.5,0.1,0.8h0l2,9.9c0,0,0,0,0,0c-0.2-0.4-3.1-5.7-3.3-6c-1.3-2.2-2-3-2-4.6c0.1-3.6,3.1-6.8,6.9-6.8
		c0.8,0,1.6,0.1,2.3,0.4c2.6,1,4.5,3.6,4.5,6.4C31,30.2,30.2,31.1,28.6,33.8z"/>
	<g>
		<path class="st3" d="M140.4,49.7H138v-0.8h5.7v0.8h-2.4V56h-1V49.7z"/>
		<path class="st3" d="M152.2,48.8h5v0.8h-4v2.3h3.7v0.8h-3.7v2.5h4V56h-5V48.8z"/>
		<path class="st3" d="M166,48.8h1v6.4h3.8V56H166V48.8z"/>
		<path class="st3" d="M179.3,48.8h5v0.8h-4v2.3h3.7v0.8h-3.7v2.5h4V56h-5V48.8z"/>
		<path class="st3" d="M193.1,48.8h1.3l2.3,6l2.3-6h1.3V56h-0.9v-6h0l-2.2,6h-0.8l-2.2-6h0v6h-0.9V48.8z"/>
		<path class="st3" d="M211.5,48.8h1.1l2.8,7.2h-1.1l-0.8-2.2h-3l-0.8,2.2h-1L211.5,48.8z M210.8,53.1h2.4l-1.2-3.3h0L210.8,53.1z"
			/>
		<path class="st3" d="M224.8,49.7h-2.4v-0.8h5.7v0.8h-2.4V56h-1V49.7z"/>
		<path class="st3" d="M236.6,48.8h1V56h-1V48.8z"/>
		<path class="st3" d="M251.9,51c-0.1-0.3-0.1-0.5-0.3-0.7s-0.3-0.4-0.4-0.5c-0.2-0.1-0.4-0.2-0.6-0.3c-0.2-0.1-0.5-0.1-0.7-0.1
			c-0.4,0-0.8,0.1-1.1,0.2c-0.3,0.2-0.6,0.4-0.8,0.6c-0.2,0.3-0.3,0.6-0.4,0.9c-0.1,0.3-0.1,0.7-0.1,1.1c0,0.4,0,0.8,0.1,1.2
			c0.1,0.4,0.2,0.7,0.4,1c0.2,0.3,0.5,0.5,0.8,0.6c0.3,0.2,0.7,0.2,1.1,0.2c0.3,0,0.6-0.1,0.8-0.2c0.2-0.1,0.5-0.2,0.6-0.4
			c0.2-0.2,0.3-0.4,0.4-0.7c0.1-0.3,0.2-0.5,0.2-0.8h1c-0.1,0.9-0.4,1.6-0.9,2.1c-0.5,0.5-1.3,0.8-2.2,0.8c-0.6,0-1-0.1-1.5-0.3
			c-0.4-0.2-0.8-0.5-1-0.8c-0.3-0.3-0.5-0.7-0.6-1.2c-0.1-0.5-0.2-0.9-0.2-1.5c0-0.5,0.1-1,0.2-1.5c0.1-0.5,0.4-0.9,0.6-1.2
			c0.3-0.3,0.6-0.6,1.1-0.8c0.4-0.2,0.9-0.3,1.5-0.3c0.4,0,0.7,0.1,1.1,0.2c0.3,0.1,0.6,0.2,0.9,0.4c0.3,0.2,0.5,0.4,0.7,0.7
			c0.2,0.3,0.3,0.6,0.3,1H251.9z"/>
		<path class="st3" d="M265.9,51c-0.1-0.5-0.2-0.9-0.6-1.1c-0.3-0.2-0.7-0.3-1.2-0.3c-0.2,0-0.4,0-0.6,0.1c-0.2,0-0.4,0.1-0.5,0.2
			c-0.2,0.1-0.3,0.2-0.4,0.4c-0.1,0.2-0.1,0.4-0.1,0.6c0,0.2,0.1,0.4,0.2,0.5c0.1,0.1,0.3,0.2,0.5,0.3c0.2,0.1,0.5,0.2,0.7,0.2
			c0.3,0.1,0.6,0.1,0.8,0.2c0.3,0.1,0.6,0.1,0.8,0.2c0.3,0.1,0.5,0.2,0.7,0.4c0.2,0.2,0.4,0.4,0.5,0.6c0.1,0.2,0.2,0.5,0.2,0.9
			c0,0.4-0.1,0.7-0.3,1c-0.2,0.3-0.4,0.5-0.7,0.7c-0.3,0.2-0.6,0.3-0.9,0.4c-0.3,0.1-0.7,0.1-1,0.1c-0.4,0-0.8-0.1-1.1-0.2
			c-0.4-0.1-0.7-0.3-0.9-0.5s-0.5-0.5-0.6-0.8c-0.2-0.3-0.2-0.7-0.2-1.1h0.9c0,0.3,0.1,0.6,0.2,0.8c0.1,0.2,0.3,0.4,0.5,0.5
			c0.2,0.1,0.4,0.2,0.7,0.3c0.3,0.1,0.5,0.1,0.8,0.1c0.2,0,0.4,0,0.6-0.1c0.2,0,0.4-0.1,0.6-0.2c0.2-0.1,0.3-0.2,0.4-0.4
			c0.1-0.2,0.2-0.4,0.2-0.6c0-0.2-0.1-0.4-0.2-0.6c-0.1-0.2-0.3-0.3-0.5-0.4c-0.2-0.1-0.5-0.2-0.7-0.2c-0.3-0.1-0.6-0.1-0.8-0.2
			c-0.3-0.1-0.6-0.1-0.8-0.2c-0.3-0.1-0.5-0.2-0.7-0.3c-0.2-0.1-0.4-0.3-0.5-0.5c-0.1-0.2-0.2-0.5-0.2-0.8c0-0.4,0.1-0.7,0.2-0.9
			c0.1-0.3,0.3-0.5,0.6-0.7c0.2-0.2,0.5-0.3,0.8-0.4c0.3-0.1,0.6-0.1,1-0.1c0.4,0,0.7,0,1,0.1c0.3,0.1,0.6,0.2,0.8,0.4
			c0.2,0.2,0.4,0.4,0.6,0.7c0.1,0.3,0.2,0.6,0.2,1H265.9z"/>
	</g>
</g>
</svg>
