<?xml version="1.0" encoding="utf-8"?>
<!-- Generator: Adobe Illustrator 26.4.1, SVG Export Plug-In . SVG Version: 6.00 Build 0)  -->
<svg version="1.1" id="Calque_1" xmlns="http://www.w3.org/2000/svg" xmlns:xlink="http://www.w3.org/1999/xlink" x="0px" y="0px"
	 viewBox="0 0 102.1 102.1" style="enable-background:new 0 0 102.1 102.1;" xml:space="preserve">
<style type="text/css">
	.st0{fill:#FDCF25;}
</style>
<g>
	<path class="st0" d="M87.3,14.8C77.4,5.3,65.3,0,50.9,0S24.7,4.9,14.8,14.8C4.9,24.3,0,36.4,0,51.2c0,14.4,4.9,27,14.8,36.4
		c9.9,9.5,22,14.4,36.1,14.4s26.2-4.9,36.4-14.4c9.9-9.5,14.8-22,14.8-36.4S97.2,24.7,87.3,14.8z M67.6,61.1
		c-0.4,0.8-1.1,1.5-1.5,2.3C60,74,55,83.5,55,83.5c-2.3,4.9-6.1,4.9-8.7,0.8c0-0.4-0.4-0.4-0.4-0.8c0,0-0.4-0.4-0.4-0.8L63,47.8l0,0
		c0-0.4,0.4-0.8,0.4-0.8l0,0l0,0c0.8-1.9,1.5-3.8,1.5-6.1c0-1.5-0.4-3-0.8-4.6c-1.9-5.7-7.2-9.5-13.3-9.5c-8,0-14,6.5-14,14
		c0,1.1,0,1.9,0.4,3l0,0l7.6,37.6l0,0C44,80.1,33,60,32.3,58.8c-4.9-8.4-7.6-11.4-7.6-17.5c0.4-13.7,11.8-25.8,26.2-25.8
		c3,0,6.1,0.4,8.7,1.5c9.9,3.8,17.1,13.7,17.1,24.3C76.7,47.5,73.6,50.9,67.6,61.1z"/>
</g>
</svg>
